<svg width="16" height="18" viewBox="0 0 16 18" fill="none" xmlns="http://www.w3.org/2000/svg">
<path d="M8.02857 0.857666L15.4312 5.14338V13.7148L8.02857 18.0005L0.625977 13.7148V5.14338L8.02857 0.857666ZM8.02857 11.7668C8.64856 11.7668 9.24315 11.5205 9.68155 11.0821C10.1199 10.6437 10.3662 10.0491 10.3662 9.42909C10.3662 8.80911 10.1199 8.21451 9.68155 7.77612C9.24315 7.33772 8.64856 7.09143 8.02857 7.09143C7.40859 7.09143 6.81399 7.33772 6.3756 7.77612C5.9372 8.21451 5.69091 8.80911 5.69091 9.42909C5.69091 10.0491 5.9372 10.6437 6.3756 11.0821C6.81399 11.5205 7.40859 11.7668 8.02857 11.7668Z" fill="#49454F"/>
</svg>
